#!OML:ASF C:\ViconDB\ViconDB\414\Spring2016\041811\Spring2016.ASF
:FULLY-SPECIFIED
:DEGREES
310
root 5.77149 14.7067 -47.5075 -165.284 -2.46389 -178.845
lowerback 30.4649 0.428782 -1.38772
upperback 4.2299 -0.94939 0.439342
thorax -12.0088 -0.810575 1.78374
lowerneck -13.3316 -7.17537 -12.2874
upperneck -2.0914 -7.74954 20.6511
head 3.04216 -2.8089 7.94607
rclavicle -6.95746e-015 -5.56597e-015
rhumerus -32.3064 3.61004 -88.7389
rradius 60.7518
rwrist 3.82278
rhand -45.1994 -16.7993
rfingers 7.12502
rthumb -17.9756 -45.9886
lclavicle -6.95746e-015 -5.56597e-015
lhumerus -22.043 2.01472 82.6019
lradius 43.3243
lwrist -2.56349
lhand -33.7252 18.3942
lfingers 7.12502
lthumb -6.91428 48.2613
rfemur -57.9239 -22.1639 22.9529
rtibia 86.2935
rfoot 5.07861 -17.1957
rtoes -0.736287
lfemur -65.369 15.8292 -16.0916
ltibia 89.1742
lfoot -34.5588 -7.26168
ltoes -15.5882
311
root 5.75516 14.7878 -47.7209 -164.933 -2.45942 -179.014
lowerback 29.9428 0.477769 -1.64401
upperback 4.14141 -0.91738 0.443943
thorax -11.8459 -0.769621 1.9123
lowerneck -13.4762 -7.28098 -12.569
upperneck -2.32135 -7.78783 21.0275
head 3.04343 -2.79584 8.1169
rclavicle -3.18055e-015 1.21259e-014
rhumerus -32.3064 3.61004 -88.7389
rradius 60.7518
rwrist 3.82278
rhand -45.1994 -16.7993
rfingers 7.12502
rthumb -17.9756 -45.9886
lclavicle -3.18055e-015 1.21259e-014
lhumerus -19.9351 1.89537 81.9914
lradius 47.2147
lwrist -1.59184
lhand -32.6224 18.2682
lfingers 7.12502
lthumb -5.84966 48.1674
rfemur -56.6352 -21.8833 22.5134
rtibia 85.2515
rfoot 5.58311 -16.9502
rtoes -0.472281
lfemur -64.1287 15.5204 -16.1245
ltibia 88.3374
lfoot -35.0526 -6.96545
ltoes -16.2126
312
root 5.73329 14.8995 -47.9464 -164.585 -2.49619 -179.143
lowerback 29.1984 0.408733 -1.75663
upperback 4.08451 -0.993917 0.36675
thorax -11.5297 -0.7888 1.89976
lowerneck -13.74 -7.29374 -12.3604
upperneck -2.5462 -7.73621 21.1232
head 3.01196 -2.73779 8.11546
rclavicle -7.95139e-015 -1.39149e-015
rhumerus -32.3064 3.61004 -88.7389
rradius 60.7518
rwrist 3.82278
rhand -45.1994 -16.7993
rfingers 7.12502
rthumb -17.9756 -45.9886
lclavicle -7.95139e-015 -1.39149e-015
lhumerus -17.9901 1.31074 80.96
lradius 52.0936
lwrist 0.21503
lhand -33.9798 18.5092
lfingers 7.12502
lthumb -7.16011 48.368
rfemur -55.0408 -21.6935 22.109
rtibia 83.8359
rfoot 6.03507 -16.7002
rtoes -0.12845
lfemur -62.6215 15.1545 -16.1281
ltibia 87.2024
lfoot -35.5268 -6.69369
ltoes -16.6112
313
root 5.70887 15.0115 -48.1764 -164.314 -2.52288 -179.455
lowerback 28.4632 0.390103 -2.18557
upperback 4.03973 -1.09313 0.381416
thorax -11.1945 -0.806024 2.18283
lowerneck -12.9075 -4.70108 -10.8718
upperneck -4.33881 -3.97069 18.7583
head 1.58211 -1.01088 7.41068
rclavicle -3.37934e-015 -3.37934e-015
rhumerus -32.3064 3.61004 -88.7389
rradius 60.7518
rwrist 3.82278
rhand -45.1994 -16.7993
rfingers 7.12502
rthumb -17.9756 -45.9886
lclavicle -3.37934e-015 -3.37934e-015
lhumerus -15.9804 1.27109 79.8746
lradius 57.1325
lwrist 0.90955
lhand -33.7375 17.5919
lfingers 7.12502
lthumb -6.92617 47.4586
rfemur -53.3419 -21.6491 21.5099
rtibia 82.3173
rfoot 6.43946 -16.3934
rtoes 0.0265317
lfemur -60.9486 14.7027 -16.3443
ltibia 85.906
lfoot -35.9753 -6.22717
ltoes -17.3003
314
root 5.68661 15.1362 -48.4206 -164.091 -2.64628 -179.529
lowerback 27.7348 0.304652 -2.14876
upperback 3.90854 -1.11903 0.387592
thorax -10.969 -0.800086 2.159
lowerneck -13.298 -4.74262 -10.9732
upperneck -4.20815 -3.98859 18.7384
head 1.68694 -0.992399 7.41946
rclavicle 1.92821e-014 -7.35503e-015
rhumerus -32.3064 3.61004 -88.7389
rradius 60.7518
rwrist 3.82278
rhand -45.1994 -16.7993
rfingers 7.12502
rthumb -17.9756 -45.9886
lclavicle 1.92821e-014 -7.35503e-015
lhumerus -13.6372 0.788237 78.4206
lradius 61.4736
lwrist 0.913051
lhand -34.2164 15.1078
lfingers 7.12502
lthumb -7.38847 44.9588
rfemur -51.3639 -21.5557 21.1514
rtibia 80.5096
rfoot 6.75261 -16.0736
rtoes 0.442591
lfemur -59.1166 14.2358 -16.2443
ltibia 84.4274
lfoot -36.3589 -5.87791
ltoes -17.7753
315
root 5.66786 15.2711 -48.6748 -163.976 -2.77213 -179.683
lowerback 27.1039 0.168368 -2.38685
upperback 3.69296 -1.28826 0.38047
thorax -10.8763 -0.842679 2.33285
lowerneck -13.5207 -4.63084 -10.9531
upperneck -4.00845 -3.83873 18.7661
head 1.75875 -0.90037 7.43515
rclavicle 1.49089e-014 7.55382e-015
rhumerus -32.3064 3.61004 -88.7389
rradius 60.7518
rwrist 3.82278
rhand -45.1994 -16.7993
rfingers 7.12502
rthumb -17.9756 -45.9886
lclavicle 1.49089e-014 7.55382e-015
lhumerus -12.0602 0.866619 76.5698
lradius 66.9574
lwrist -0.714278
lhand -33.2403 14.8983
lfingers 7.12502
lthumb -6.44617 44.7802
rfemur -49.1031 -21.5084 20.6708
rtibia 78.4876
rfoot 6.93442 -15.7664
rtoes 0.920032
lfemur -57.0091 13.8345 -16.2003
ltibia 82.7322
lfoot -36.5473 -5.7112
ltoes -18.1865
316
root 5.64957 15.4261 -48.9462 -163.927 -2.92816 -179.851
lowerback 26.3438 -0.00290611 -2.62249
upperback 3.4742 -1.49747 0.342997
thorax -10.7137 -0.905398 2.47848
lowerneck -13.9017 -4.46134 -10.589
upperneck -3.43522 -3.72757 18.3895
head 1.94463 -0.841095 7.25355
rclavicle 1.11319e-014 5.56597e-015
rhumerus -32.3064 3.61004 -88.7389
rradius 60.7518
rwrist 3.82278
rhand -45.1994 -16.7993
rfingers 7.12502
rthumb -17.9756 -45.9886
lclavicle 1.11319e-014 5.56597e-015
lhumerus -10.1213 0.73206 74.284
lradius 72.1138
lwrist -2.1938
lhand -33.2403 14.8983
lfingers 7.12502
lthumb -6.44617 44.7802
rfemur -46.5031 -21.5055 20.138
rtibia 76.1522
rfoot 7.00047 -15.4255
rtoes 0.982145
lfemur -54.6274 13.3269 -16.1598
ltibia 80.7652
lfoot -36.7975 -5.21948
ltoes -18.6978
317
root 5.62615 15.5881 -49.2383 -163.85 -2.92353 -180.025
lowerback 25.3296 -0.149524 -2.79684
upperback 3.2421 -1.64769 0.239675
thorax -10.4338 -0.945289 2.48362
lowerneck -14.285 -4.3219 -10.2351
upperneck -2.70243 -3.69433 17.9718
head 2.18832 -0.825453 7.05608
rclavicle 4.69132e-014 4.37326e-015
rhumerus -32.3064 3.61004 -88.7389
rradius 60.7518
rwrist 3.82278
rhand -45.1994 -16.7993
rfingers 7.12502
rthumb -17.9756 -45.9886
lclavicle 4.69132e-014 4.37326e-015
lhumerus -7.79066 0.386515 71.7088
lradius 76.1003
lwrist 0.338643
lhand -33.2403 14.8983
lfingers 7.12502
lthumb -6.44617 44.7802
rfemur -43.8069 -21.4129 19.5422
rtibia 73.6195
rfoot 6.99482 -15.0034
rtoes 0.982189
lfemur -52.0751 12.9274 -16.1943
ltibia 78.5826
lfoot -36.9083 -4.68391
ltoes -19.0568
318
root 5.60999 15.7775 -49.5498 -163.843 -3.13085 -179.993
lowerback 24.332 -0.313886 -2.80249
upperback 2.93427 -1.74791 0.288786
thorax -10.244 -0.958678 2.54481
lowerneck -14.5651 -4.24101 -10.1921
upperneck -1.86288 -3.73042 17.7587
head 2.47219 -0.844362 6.97631
rclavicle 6.16232e-015 9.14409e-015
rhumerus -32.3064 3.61004 -88.7389
rradius 60.7518
rwrist 3.82278
rhand -45.1994 -16.7993
rfingers 7.12502
rthumb -17.9756 -45.9886
lclavicle 6.16232e-015 9.14409e-015
lhumerus -7.79066 0.386515 71.7088
lradius 76.1003
lwrist 0.338643
lhand -33.2403 14.8983
lfingers 7.12502
lthumb -6.44617 44.7802
rfemur -40.8162 -21.3732 19.2209
rtibia 70.8203
rfoot 6.7925 -14.4401
rtoes 1.11878
lfemur -49.3163 12.4474 -15.9092
ltibia 76.136
lfoot -36.7151 -4.26778
ltoes -19.648
319
root 5.58561 15.9752 -49.8825 -163.858 -3.19162 -180.195
lowerback 23.1994 -0.48114 -3.08519
upperback 2.56859 -1.92384 0.260065
thorax -10.0302 -0.996411 2.69571
lowerneck -14.6454 -4.02354 -9.93514
upperneck -0.954299 -3.64179 17.3501
head 2.71556 -0.824162 6.80587
rclavicle -1.55052e-014 -8.74653e-015
rhumerus -32.3064 3.61004 -88.7389
rradius 60.7518
rwrist 3.82278
rhand -45.1994 -16.7993
rfingers 7.12502
rthumb -17.9756 -45.9886
lclavicle -1.55052e-014 -8.74653e-015
lhumerus -7.79066 0.386515 71.7088
lradius 76.1003
lwrist 0.338643
lhand -33.2403 14.8983
lfingers 7.12502
lthumb -6.44617 44.7802
rfemur -37.7207 -21.3948 18.5555
rtibia 67.9519
rfoot 6.10037 -13.8945
rtoes 1.23955
lfemur -46.3735 11.8579 -15.9047
ltibia 73.5181
lfoot -36.4497 -3.72078
ltoes -20.4953
320
root 5.56289 16.1603 -50.2324 -163.781 -3.24152 -180.298
lowerback 21.7725 -0.629475 -3.35278
upperback 2.15025 -2.04051 0.299691
thorax -9.70749 -1.00477 2.88136
lowerneck -14.6644 -3.8472 -9.83664
upperneck 0.0291511 -3.60084 17.033
head 2.9861 -0.827508 6.69103
rclavicle -5.96354e-016 4.37326e-015
rhumerus -32.3064 3.61004 -88.7389
rradius 60.7518
rwrist 3.82278
rhand -45.1994 -16.7993
rfingers 7.12502
rthumb -17.9756 -45.9886
lclavicle -5.96354e-016 4.37326e-015
lhumerus -7.79066 0.386515 71.7088
lradius 76.1003
lwrist 0.338643
lhand -33.2403 14.8983
lfingers 7.12502
lthumb -6.44617 44.7802
rfemur -34.7721 -21.3936 18.0411
rtibia 65.0951
rfoot 5.19896 -13.1276
rtoes 1.57274
lfemur -43.3892 11.1796 -15.8293
ltibia 70.6817
lfoot -35.9128 -3.06142
ltoes -21.1572
321
root 5.53545 16.3569 -50.6052 -163.734 -3.17361 -180.521
lowerback 20.2832 0.142609 -1.93565
upperback 2.27723 -0.630484 0.228568
thorax -8.86358 -0.398909 1.55361
lowerneck -16.5136 -4.82643 -12.8354
upperneck 0.935396 -5.72489 17.9526
head 3.94139 -2.37228 7.28711
rclavicle -9.59136e-015 4.47266e-015
rhumerus -32.3064 3.61004 -88.7389
rradius 60.7518
rwrist 3.82278
rhand -45.1994 -16.7993
rfingers 7.12502
rthumb -17.9756 -45.9886
lclavicle -9.59136e-015 4.47266e-015
lhumerus -7.79066 0.386515 71.7088
lradius 76.1003
lwrist 0.338643
lhand -33.2403 14.8983
lfingers 7.12502
lthumb -6.44617 44.7802
rfemur -31.7643 -21.396 17.2996
rtibia 62.2404
rfoot 3.94903 -12.3476
rtoes 1.61099
lfemur -40.2016 10.5134 -15.9052
ltibia 67.6202
lfoot -35.2633 -2.33519
ltoes -21.8252
